<?xml version="1.0" encoding="UTF-8" ?>
<!DOCTYPE svg PUBLIC "-//W3C//DTD SVG 1.1//EN" "http://www.w3.org/Graphics/SVG/1.1/DTD/svg11.dtd">
<svg width="55pt" height="55pt" viewBox="0 0 55 55" version="1.1" xmlns="http://www.w3.org/2000/svg">
<path fill="#545454" d=" M 0.00 0.00 L 55.00 0.00 L 55.00 55.00 L 0.00 55.00 L 0.00 0.00 Z" />
<path fill="#d9d9d9" d=" M 28.26 7.04 C 29.81 5.06 32.98 8.21 30.98 9.76 C 27.51 13.40 23.89 16.88 20.29 20.38 C 18.98 22.29 15.63 20.04 17.05 18.22 C 20.60 14.33 24.46 10.70 28.26 7.04 Z" />
<path fill="#d9d9d9" d=" M 31.40 12.43 C 34.77 8.86 41.10 9.00 44.29 12.75 C 47.40 16.03 47.20 21.73 43.86 24.77 C 36.58 31.99 29.31 39.20 21.99 46.37 C 17.81 42.30 13.66 38.18 9.53 34.06 C 16.81 26.84 24.10 19.63 31.40 12.43 Z" />
<path fill="#545454" d=" M 34.29 15.21 C 35.99 13.39 39.12 13.28 40.93 15.00 C 43.00 16.72 43.06 20.22 41.01 21.98 C 34.69 28.26 28.35 34.53 21.99 40.78 C 19.71 38.56 17.44 36.32 15.19 34.06 C 21.55 27.77 27.89 21.45 34.29 15.21 Z" />
<path fill="#d9d9d9" d=" M 9.46 38.03 C 9.73 38.03 10.27 38.03 10.54 38.03 C 12.71 40.14 14.78 42.37 17.00 44.44 C 17.00 45.08 17.00 46.35 17.00 46.99 C 12.33 47.01 7.67 47.01 3.00 46.99 C 3.00 46.35 3.00 45.08 3.00 44.44 C 5.22 42.37 7.29 40.14 9.46 38.03 Z" />
</svg>
